<?xml version="1.0" encoding="UTF-8"?>
<svg width="46px" height="46px" viewBox="0 0 46 46" version="1.1" xmlns="http://www.w3.org/2000/svg" xmlns:xlink="http://www.w3.org/1999/xlink">
    <title>asa-gift-sharesheet-logo-applebow-1 3</title>
    <g id="asa-gift-sharesheet-logo-applebow-1-3" stroke="none" stroke-width="1" fill="none" fill-rule="evenodd">
        <g id="Group" transform="translate(7, 3)" fill="#000000">
            <path d="M21.7772726,6.22610786 C23.1513626,4.57811007 24.0759912,2.28286814 23.8214306,0 C21.8436463,0.0778596622 19.4516976,1.30724279 18.0331026,2.95428875 C16.7627934,4.41325318 15.6471006,6.74999487 15.9500028,8.98641373 C18.154532,9.1552683 20.4043335,7.87524784 21.7772726,6.22610786" id="Fill-1"></path>
            <path d="M20.7916224,19.3913582 C20.6243452,19.4600803 20.4756757,19.5575476 20.3490668,19.6812855 L17.9730401,22.0395385 L21.3256817,22.0395385 C21.5109911,22.0383963 21.6863252,22.0029883 21.8530269,21.9342662 C22.5595428,21.6441485 22.8963992,20.8373777 22.6038559,20.1358793 C22.3111209,19.434952 21.4992893,19.1002887 20.7916224,19.3913582" id="Fill-3"></path>
            <path d="M17.0466275,20.9226045 L19.3179142,18.668672 C19.5905069,18.4015886 19.8955193,18.2011333 20.2362123,18.061024 C21.6822392,17.4672727 23.3450359,18.1503056 23.9443179,19.5849032 C24.2898067,20.4131853 24.2042498,21.3124739 23.7937301,22.0398621 L26.8321515,22.0398621 C26.7694225,21.6223897 26.7304807,21.1843577 26.7264522,20.718913 C26.6798371,15.7840572 30.7856098,13.4119074 30.972262,13.2976879 C28.6415075,9.89147044 25.0417867,9.51587847 23.7737796,9.42259917 C21.0309708,9.22119202 18.6440096,10.646081 17.0466275,11.0858262 L17.0466275,20.9226045 Z" id="Fill-5"></path>
            <path d="M8.8483378,22.039786 C8.43781809,21.3123978 8.35226117,20.4131092 8.69813363,19.5850174 C8.98799124,18.8901818 9.5333686,18.3489715 10.2339378,18.0609478 C10.9343151,17.7736857 11.705862,17.7734953 12.4058556,18.0611382 C12.746165,18.2008668 13.0509854,18.4011317 13.3118765,18.6562221 L15.5956322,20.9227188 L15.5956322,11.1297246 C14.0653912,10.781355 11.9736589,9.4802039 9.77219899,9.52132294 C6.43682222,9.56986625 3.36291198,11.4474453 1.64294947,14.4108717 C0.333314846,16.6667078 -0.111350902,19.333544 0.0229312482,22.039786 L8.8483378,22.039786 Z" id="Fill-7"></path>
            <path d="M27.1757219,23.4796758 L18.1721038,23.4796758 L22.0624495,27.340487 C22.3459767,27.6214671 22.3459767,28.0773935 22.0624495,28.358564 C21.9210696,28.499054 21.7353765,28.5694894 21.5496835,28.5694894 C21.3637987,28.5694894 21.1781056,28.499054 21.0367257,28.358564 L17.0466275,24.3989528 L17.0466275,37.4089407 C19.8324067,37.5024103 20.7142567,38.9960214 23.2638911,38.9495721 C25.94282,38.9002673 27.6401463,36.53459 29.2785804,34.1553967 C31.1746444,31.4091779 31.9538645,28.7501467 32.0000959,28.6094663 C31.9511788,28.5911911 28.440468,27.2512054 27.1757219,23.4796758" id="Fill-9"></path>
            <path d="M11.8506948,19.3915866 C11.6793892,19.3209609 11.4996429,19.2859335 11.3197049,19.2859335 C11.1399586,19.2859335 10.9600205,19.3209609 10.7889067,19.3913962 C10.4466791,19.5320767 10.1802249,19.7964949 10.0384613,20.1359174 C9.89669773,20.4757205 9.89669773,20.8497896 10.0384613,21.1895927 C10.1802249,21.5292055 10.4466791,21.7936238 10.7889067,21.9344946 C10.9558002,22.0030263 11.1311344,22.0384344 11.3097296,22.039767 L14.6692772,22.0395766 L12.2984299,19.6866538 C12.1664497,19.5575857 12.0173965,19.459928 11.8506948,19.3915866" id="Fill-12"></path>
            <path d="M15.5956705,24.3986863 L11.6053805,28.3584878 C11.4640006,28.4991682 11.2781158,28.5694133 11.0924227,28.5694133 C10.9067297,28.5694133 10.7212285,28.4991682 10.5796567,28.3584878 C10.2961296,28.0775077 10.2961296,27.6215813 10.5796567,27.3404109 L14.4700025,23.4795996 L0.148427509,23.4795996 C0.63433706,27.4557726 2.26030206,31.3750262 4.13296256,34.0622316 C5.78367385,36.4282896 7.75225016,39.0945548 10.3379489,38.9974681 C12.4674719,38.9142782 13.4680658,37.8067293 15.5956705,37.487676 L15.5956705,24.3986863 Z" id="Fill-14"></path>
        </g>
    </g>
</svg>